<svg id="Layer_1" data-name="Layer 1" xmlns="http://www.w3.org/2000/svg" width="300mm" height="300mm" viewBox="0 0 850.39 850.39">
  <defs>
    <style>
      .cls-1 {
        fill: #d5b6a3;
      }

      .cls-2 {
        fill: #9f877a;
      }

      .cls-3 {
        fill: #c2c1c1;
      }

      .cls-4 {
        fill: #fff;
      }

      .cls-5 {
        fill: #fef1eb;
      }

      .cls-6 {
        fill: #a0a09f;
      }
    </style>
  </defs>
  <circle class="cls-1" cx="426.11" cy="426.07" r="423.78"/>
  <path class="cls-2" d="M177.26,593.39l463.06,197S893.6,656.81,841.77,343.86L703.13,234.32Z"/>
  <rect class="cls-3" x="151.94" y="219.9" width="553.85" height="373.28" rx="27.45"/>
  <rect class="cls-4" x="187.94" y="250.6" width="481.85" height="303.16"/>
  <rect class="cls-3" x="403.94" y="588.9" width="45" height="54"/>
  <rect class="cls-3" x="358.94" y="633.9" width="135" height="36" rx="10.89"/>
  <rect class="cls-3" x="358.94" y="642.9" width="135" height="27"/>
  <rect class="cls-2" x="187.94" y="251.9" width="481" height="40"/>
  <rect class="cls-5" x="611.94" y="258.9" width="46" height="27"/>
  <rect class="cls-5" x="555.94" y="257.9" width="46" height="27"/>
  <rect class="cls-5" x="500.94" y="257.9" width="46" height="27"/>
  <path class="cls-1" d="M380.51,515.06s-79.76-19.94-64.67-121.67c4.61-31.11,22.13-59,48.76-75.71,27.44-17.22,68.45-25.47,123,9.85A59.52,59.52,0,0,1,502,340.67c.17.22.35.43.52.66,22,28.21,12.11,69.21-20,84.95-16.32,8-29.91,24.82-20.52,60C481.17,558.2,380.51,515.06,380.51,515.06Z"/>
  <circle class="cls-5" cx="352.42" cy="409.86" r="15.52"/>
  <circle class="cls-5" cx="374.42" cy="361.86" r="15.52"/>
  <circle class="cls-5" cx="420.42" cy="339.86" r="15.52"/>
  <ellipse class="cls-4" cx="427.12" cy="495.65" rx="18.36" ry="22" transform="translate(-227.17 498.4) rotate(-49.49)"/>
  <path class="cls-2" d="M371.94,447.9s8-21,21-26c0,0,88-83,146-113,0,0,1,0,0,2,0,0-48,72-122,144,0,0-3,7-26,16A50.6,50.6,0,0,0,371.94,447.9Z"/>
  <path class="cls-6" d="M363.94,454.9s-25-8-43,30-35,39-35,39,20,15,59,6,38-51,38-51S379.94,465.9,363.94,454.9Z"/>
</svg>
