<svg id="Layer_1" data-name="Layer 1" xmlns="http://www.w3.org/2000/svg" width="1359.37mm" height="1359.37mm" viewBox="0 0 3853.33 3853.33">
  <defs>
    <style>
      .cls-1 {
        fill: #eaeaea;
        stroke: #1d1d1b;
        stroke-miterlimit: 10;
        stroke-width: 20px;
      }

      .cls-2 {
        fill: #1d1d1b;
      }
    </style>
  </defs>
  <circle class="cls-1" cx="1926.67" cy="1926.67" r="1916.67"/>
  <g>
    <path class="cls-2" d="M1368,1759.67h43.5v300.5h144v36.5H1368Z"/>
    <path class="cls-2" d="M1872.5,1924.67c0,116-70.5,177.5-156.5,177.5-89,0-151.5-69-151.5-171,0-107,66.5-177,156.5-177C1813,1754.17,1872.5,1824.67,1872.5,1924.67Zm-261.5,5.5c0,72,39,136.5,107.5,136.5,69,0,108-63.5,108-140,0-67-35-137-107.5-137C1647,1789.67,1611,1856.17,1611,1930.17Z"/>
    <path class="cls-2" d="M2185.5,2081.67c-19.5,7-58,18.5-103.5,18.5-51,0-93-13-126-44.5-29-28-47-73-47-125.5.5-100.5,69.5-174,182.5-174,39,0,69.5,8.5,84,15.5l-10.5,35.5c-18-8-40.5-14.5-74.5-14.5-82,0-135.5,51-135.5,135.5,0,85.5,51.5,136,130,136,28.5,0,48-4,58-9v-100.5h-68.5v-35h111Z"/>
    <path class="cls-2" d="M2540,1924.67c0,116-70.5,177.5-156.5,177.5-89,0-151.5-69-151.5-171,0-107,66.5-177,156.5-177C2480.5,1754.17,2540,1824.67,2540,1924.67Zm-261.5,5.5c0,72,39,136.5,107.5,136.5,69,0,108-63.5,108-140,0-67-35-137-107.5-137C2314.5,1789.67,2278.5,1856.17,2278.5,1930.17Z"/>
  </g>
</svg>
