<svg id="Layer_1" data-name="Layer 1" xmlns="http://www.w3.org/2000/svg" width="250.26mm" height="72.46mm" viewBox="0 0 709.39 205.39">
  <defs>
    <style>
      .cls-1 {
        fill: none;
        stroke: #1d1d1b;
        stroke-miterlimit: 10;
        stroke-width: 3px;
      }

      .cls-2 {
        fill: #fff;
      }

      .cls-3 {
        fill: #1d1d1b;
      }

      .cls-4 {
        opacity: 0.85;
      }

      .cls-5 {
        fill: silver;
      }

      .cls-6 {
        fill: #a8a8a7;
      }

      .cls-7 {
        fill: #797979;
      }

      .cls-8 {
        fill: #d8d8d8;
      }

      .cls-9 {
        fill: #929292;
      }

      .cls-10 {
        fill: #5f5e5e;
      }
    </style>
  </defs>
  <rect class="cls-1" x="11.44" y="66.42" width="686" height="123.98"/>
  <rect class="cls-2" x="147.94" y="60.9" width="419" height="12.27"/>
  <rect class="cls-2" x="146.94" y="186.9" width="419" height="12.27"/>
  <g>
    <path class="cls-3" d="M171.94,78.66a3.53,3.53,0,0,1-3-1.76A6.75,6.75,0,0,1,167.73,73a16.47,16.47,0,0,1,.35-3.66,9.68,9.68,0,0,1,1.29-3.05c.62-1,1.14-1.77,1.55-2.34s1.14-1.43,2.2-2.61,1.83-2.08,2.34-2.72,1.95-2.3,4.34-4.95,4-4.46,4.92-5.39a26.83,26.83,0,0,0,2.22-11.14c0-.5,0-1-.05-1.52a13.35,13.35,0,0,0-4.34,1.06,14.54,14.54,0,0,1-5,1V36.3a22.11,22.11,0,0,0,4.22-.33,10.52,10.52,0,0,0,3.51-1.49,21.68,21.68,0,0,0,2-1.88c1.13-1.13,2-1.7,2.57-1.7a32.14,32.14,0,0,1-.9,6.3,32.21,32.21,0,0,0-.91,5.51v1.73l12.18-12.25a10.37,10.37,0,0,1,7.33-3.34,3.23,3.23,0,0,1,2.08.53c.41.35.61,1.25.61,2.7a22.3,22.3,0,0,1-1.46,6.44A48.43,48.43,0,0,1,205,46.84a26.27,26.27,0,0,1-5.65,6.92q-3.35,2.87-6.24,2.87t-6.19-2.82a80.67,80.67,0,0,1-2.22,9.44,21.14,21.14,0,0,1-1.17,3.1c-.67,1.53-1.19,2.64-1.56,3.34s-.94,1.69-1.73,3a18.72,18.72,0,0,1-2.25,3,12.11,12.11,0,0,1-2.64,2A6.62,6.62,0,0,1,171.94,78.66Zm-2.57-6c0,2.89.95,4.34,2.87,4.34A6.72,6.72,0,0,0,177,74.73a18,18,0,0,0,3.75-5.51,52.83,52.83,0,0,0,2.61-7,43.55,43.55,0,0,0,2.11-11.66q-.71,0-4.34,3.84t-4.95,5.54c-.88,1.13-1.76,2.21-2.63,3.22s-1.47,1.74-1.76,2.17a22.2,22.2,0,0,0-1.15,1.93A10.69,10.69,0,0,0,169.37,72.62ZM200.24,34q-7.5,7.5-10,10.37a27.36,27.36,0,0,0-2.64,3.23,9.68,9.68,0,0,0-.12,2.08,5.92,5.92,0,0,0,1.32,3.51,4.08,4.08,0,0,0,3.43,1.79,9.46,9.46,0,0,0,6.24-2.7,22.47,22.47,0,0,0,5.12-6.59,46.56,46.56,0,0,0,3.32-8,25.24,25.24,0,0,0,1.25-7.12,9.8,9.8,0,0,0-5.33,1.7C202.27,32.55,201.42,33.13,200.24,34Z"/>
    <path class="cls-3" d="M196.08,72.45c0-.35-.05-.69-.05-1a14.48,14.48,0,0,1,2.49-7.73c1.66-2.66,3.79-4,6.41-4a1.73,1.73,0,0,1,1.23.44,1.92,1.92,0,0,1,.47,1.47,6.42,6.42,0,0,1-.56,2.4,11,11,0,0,1-1.69,2.78c-.77.94-1.42,1.7-2,2.29s-1.32,1.35-2.31,2.28l-1.79,1.7c0,.32-.06.49-.06.53a2.73,2.73,0,0,0,1.53,2.46,6.19,6.19,0,0,0,3.16.88,11.92,11.92,0,0,0,6.24-1.41,26.28,26.28,0,0,0,5.36-4.74,2.93,2.93,0,0,0,.56-.94,1.53,1.53,0,0,1,.61-.76c.39.15.59.52.59,1.11a12,12,0,0,1-2.34,3.9,17.13,17.13,0,0,1-4.16,3.54,12,12,0,0,1-5.66,1.94A7.48,7.48,0,0,1,199.66,78,11.34,11.34,0,0,1,196.08,72.45Zm9-10.55q-2.52,0-4.69,2.7a8.38,8.38,0,0,0-2.17,5.15,4,4,0,0,0,.12,1.17,15.23,15.23,0,0,0,4.45-4Q205.06,64.07,205.05,61.9Z"/>
    <path class="cls-3" d="M230.65,74.85c0,.9.73,1.35,2.06,1.35a8.77,8.77,0,0,0,2.63-.47,13.32,13.32,0,0,1,2.84-.59c.92-.08,1.38.16,1.38.71a14,14,0,0,1-6.8,1.93,1.82,1.82,0,0,1-.46.06,3.78,3.78,0,0,1-2.55-.79,2.29,2.29,0,0,1-.91-1.73,8.76,8.76,0,0,1,.12-1.58,18.48,18.48,0,0,1,.55-3.75,18.59,18.59,0,0,0,.56-3.69,24.59,24.59,0,0,0-3.6.43,31.11,31.11,0,0,0-3.67.8q-1.45,7.32-5.09,9.72a3.41,3.41,0,0,1-1.62.71,1.11,1.11,0,0,1-.82-.27.88.88,0,0,1-.26-.64,1.89,1.89,0,0,1,.53-1,2.63,2.63,0,0,0,2.69-1.76,20.27,20.27,0,0,0,1.44-3.78c.37-1.34.67-2.33.91-3-1.84-.75-2.76-1.68-2.76-2.82a4.17,4.17,0,0,1,2.7-4.22,5.38,5.38,0,0,1,1.87-.35,2.68,2.68,0,0,1,1.73.65,2.19,2.19,0,0,1,.79,1.81,6.25,6.25,0,0,1-1.52,3.23c.12,0,.82-.16,2.11-.47A40.61,40.61,0,0,1,231.94,64a34.67,34.67,0,0,1-.64,5.48A34.91,34.91,0,0,0,230.65,74.85Zm-8.78-13.13c-.75,0-1.37.81-1.88,2.41,0,.7.57,1.27,1.7,1.7a3.5,3.5,0,0,0,1.23-2.41,2.9,2.9,0,0,0-.26-1.08A.86.86,0,0,0,221.87,61.72Z"/>
    <path class="cls-3" d="M250.87,72.51c0-.71,0-1.93,0-3.67s0-3.23,0-4.48c-1.1.24-2.69,1.64-4.78,4.22a51.66,51.66,0,0,1-3.42,4A44.94,44.94,0,0,1,239.15,77a2,2,0,0,1-1.7.7V76.37L240,68.23q0-4.28,1.47-6.33c.27-.39.52-.59.76-.59.39,0,.58.66.58,2a18.15,18.15,0,0,1-.58,4.33,17.22,17.22,0,0,0-.59,4c.31-.31,1.25-1.41,2.81-3.28s2.5-3,2.82-3.28a9.74,9.74,0,0,0,1.4-1.18A6,6,0,0,1,252.33,62a1.07,1.07,0,0,1,1.12.59c0,.43.06,1.12.06,2.08a34.09,34.09,0,0,1-.47,4.51,42.22,42.22,0,0,0-.53,4.89c0,1.84.76,2.75,2.29,2.75a6.14,6.14,0,0,0,3.16-.9,9.09,9.09,0,0,0,2.46-2.06l2.17-2.63a13.27,13.27,0,0,1,2.17-2.2v.59q0,2.81-3.64,5.83t-6.62,3h-1.93a3.17,3.17,0,0,1-1.14-1.11l-.38-.76a2,2,0,0,1-.15-.73c0-.33,0-.58,0-.74Z"/>
    <path class="cls-3" d="M263.53,66.06l.23-.76c.78-2.5,1.44-3.75,2-3.75.78,0,1.17.29,1.17.88a1.41,1.41,0,0,1-.05.35,27.32,27.32,0,0,0-2.23,10.37,6,6,0,0,0,1.11,3.72,4,4,0,0,0,3.4,1.5q5.75-2.24,7.21-2.23c.31,0,.47.08.47.23,0,.47-1,1.15-3.05,2A13.06,13.06,0,0,1,269,79.71a9.46,9.46,0,0,1-2.6-.26,6.42,6.42,0,0,1-1.29-.5,3.68,3.68,0,0,1-1-1,4.54,4.54,0,0,1-.76-2.11,30,30,0,0,1-.18-3.78C263.17,70.4,263.29,68.4,263.53,66.06Z"/>
    <path class="cls-3" d="M275.13,71.8q.22-6.55,3.75-15.93t5.92-10.2c.46,0,.8.45,1,1.35a10.54,10.54,0,0,1,.29,2.22,25.59,25.59,0,0,1-1.34,7.48,26.06,26.06,0,0,1-3.17,6.94,15.15,15.15,0,0,1-1.9,2.46,13.23,13.23,0,0,0-1.82,2.37,5.49,5.49,0,0,0-.61,2.73,7.07,7.07,0,0,0,1.61,4.8,5.66,5.66,0,0,0,4.54,1.88c3.24,0,5.29-1.12,6.15-3.34h.65a4.09,4.09,0,0,1-2.29,3.63,9.93,9.93,0,0,1-5.16,1.35,6.52,6.52,0,0,1-4.92-2.2A10.91,10.91,0,0,1,275.13,71.8Zm9.43-22.2A17.06,17.06,0,0,0,283,52.06a17,17,0,0,0-1.26,2.52q-3.93,10.24-3.93,11.07c1.64-1.13,3.17-3.51,4.57-7.12A27.05,27.05,0,0,0,284.56,49.6Z"/>
    <path class="cls-3" d="M288.78,71.8q.24-6.55,3.75-15.93t5.92-10.2q.71,0,1,1.35a10.66,10.66,0,0,1,.3,2.22,25.65,25.65,0,0,1-1.35,7.48,26.06,26.06,0,0,1-3.16,6.94,15.26,15.26,0,0,1-1.91,2.46,13.23,13.23,0,0,0-1.82,2.37,5.49,5.49,0,0,0-.61,2.73A7.12,7.12,0,0,0,292.5,76,5.66,5.66,0,0,0,297,77.9c3.24,0,5.29-1.12,6.15-3.34h.65a4.08,4.08,0,0,1-2.29,3.63,9.92,9.92,0,0,1-5.15,1.35,6.49,6.49,0,0,1-4.92-2.2A10.92,10.92,0,0,1,288.78,71.8Zm9.43-22.2a17.06,17.06,0,0,0-1.55,2.46,18.14,18.14,0,0,0-1.26,2.52q-3.93,10.24-3.92,11.07c1.64-1.13,3.16-3.51,4.57-7.12A27.25,27.25,0,0,0,298.21,49.6Z"/>
    <path class="cls-3" d="M302.2,72.45a8.91,8.91,0,0,1-.06-1,14.57,14.57,0,0,1,2.49-7.73q2.49-4,6.42-4a1.76,1.76,0,0,1,1.23.44,2,2,0,0,1,.46,1.47,6.58,6.58,0,0,1-.55,2.4,11,11,0,0,1-1.7,2.78c-.76.94-1.42,1.7-2,2.29s-1.32,1.35-2.32,2.28l-1.79,1.7c0,.32-.05.49-.05.53a2.72,2.72,0,0,0,1.52,2.46,6.19,6.19,0,0,0,3.16.88,11.92,11.92,0,0,0,6.24-1.41,26,26,0,0,0,5.36-4.74,2.75,2.75,0,0,0,.56-.94,1.56,1.56,0,0,1,.62-.76c.39.15.58.52.58,1.11a12,12,0,0,1-2.34,3.9,16.94,16.94,0,0,1-4.16,3.54,11.92,11.92,0,0,1-5.66,1.94A7.5,7.5,0,0,1,305.77,78,11.4,11.4,0,0,1,302.2,72.45Zm9-10.55q-2.52,0-4.68,2.7a8.32,8.32,0,0,0-2.17,5.15,4.46,4.46,0,0,0,.11,1.17,15.38,15.38,0,0,0,4.46-4Q311.16,64.07,311.16,61.9Z"/>
    <path class="cls-3" d="M376.9,35.77c1.45,0,2.17.92,2.17,2.75s-.92,4.3-2.75,7.38q-3.46,6-7.79,8.44a8.36,8.36,0,0,1-3.17,1.12Q367.42,57.28,372,67a28.37,28.37,0,0,0,3.81,6c1.49,1.78,2.95,2.67,4.4,2.67q4.44,0,6.32-2.93,0,4.33-6.91,5.1a6.82,6.82,0,0,1-4.78-2.46,21.09,21.09,0,0,1-3.57-5.51c-1-2.11-1.92-4.18-2.9-6.21a14.13,14.13,0,0,0-3.43-4.72,6.18,6.18,0,0,0-4-1.67,6.73,6.73,0,0,0-1.23.12q-2.4,11.25-3.22,14.27c-.55,2-.92,3.46-1.12,4.36a8.88,8.88,0,0,1-.79,2.29c-.33.62-.53,1-.58,1.11a2.9,2.9,0,0,1-.68.62c-.39.29-.62.47-.7.55-2.19-.08-3.28-1.5-3.28-4.28s1.07-7.16,3.22-13.18L355,56.45a76.3,76.3,0,0,0,3.69-11.54,4.66,4.66,0,0,0-.44-2.49.8.8,0,0,0-1-.38,16.07,16.07,0,0,0-1.67.82,6.1,6.1,0,0,1-1.85.7V42.15a9,9,0,0,1,2.17-1.64,6.59,6.59,0,0,1,2.52-1.17c.82,0,1.44.89,1.87,2.67a22,22,0,0,1,.65,5.18c.23-.7,1.74-2.22,4.51-4.57Q373.57,35.77,376.9,35.77ZM357.1,56.45q-2.18,2.7-4.1,9.55a42.59,42.59,0,0,0-1.94,10.78c.2.86.45,1.29.77,1.29s1-.88,1.7-2.63a58.54,58.54,0,0,0,3.28-13.77,30.68,30.68,0,0,0,.35-3.64A14.21,14.21,0,0,0,357.1,56.45Zm20.74-16.82c0-.93-.41-1.4-1.23-1.4a8.44,8.44,0,0,0-1.38.23,16.12,16.12,0,0,0-3.83,2,44.26,44.26,0,0,1-3.78,3.2c-1.74,1.34-3.15,2.48-4.22,3.4a12.85,12.85,0,0,0-2.67,3.1,5.83,5.83,0,0,0-1.05,2.7,6.24,6.24,0,0,0,.12,1.43,6.41,6.41,0,0,0,2.46.47,10.75,10.75,0,0,0,5.86-2.11,27.77,27.77,0,0,0,7.5-7.67Q377.84,41.63,377.84,39.63Z"/>
    <path class="cls-3" d="M385.34,72.45a8.91,8.91,0,0,1-.06-1,14.57,14.57,0,0,1,2.49-7.73q2.49-4,6.42-4a1.73,1.73,0,0,1,1.23.44,2,2,0,0,1,.47,1.47,6.62,6.62,0,0,1-.56,2.4,10.73,10.73,0,0,1-1.7,2.78c-.76.94-1.41,1.7-2,2.29s-1.32,1.35-2.31,2.28l-1.79,1.7c0,.32-.06.49-.06.53A2.74,2.74,0,0,0,389,76.08a6.22,6.22,0,0,0,3.17.88,12,12,0,0,0,6.24-1.41,26.28,26.28,0,0,0,5.36-4.74,2.93,2.93,0,0,0,.56-.94,1.47,1.47,0,0,1,.61-.76c.39.15.59.52.59,1.11a11.85,11.85,0,0,1-2.35,3.9,16.94,16.94,0,0,1-4.16,3.54,11.89,11.89,0,0,1-5.65,1.94A7.46,7.46,0,0,1,388.92,78,11.34,11.34,0,0,1,385.34,72.45Zm9-10.55c-1.68,0-3.25.9-4.69,2.7a8.32,8.32,0,0,0-2.17,5.15,4,4,0,0,0,.12,1.17,15.36,15.36,0,0,0,4.45-4Q394.32,64.07,394.31,61.9Z"/>
    <path class="cls-3" d="M417.8,72.51c0-.71,0-1.93,0-3.67s0-3.23,0-4.48c-1.09.24-2.68,1.64-4.77,4.22a50.27,50.27,0,0,1-3.43,4A43.48,43.48,0,0,1,406.08,77a2,2,0,0,1-1.69.7V76.37l2.51-8.14q0-4.28,1.47-6.33c.27-.39.53-.59.76-.59.39,0,.59.66.59,2a18.2,18.2,0,0,1-.59,4.33,17.13,17.13,0,0,0-.58,4c.31-.31,1.25-1.41,2.81-3.28s2.5-3,2.81-3.28a10.22,10.22,0,0,0,1.41-1.18A6,6,0,0,1,419.27,62a1.06,1.06,0,0,1,1.11.59c0,.43.06,1.12.06,2.08a34.09,34.09,0,0,1-.47,4.51,44.57,44.57,0,0,0-.53,4.89c0,1.84.77,2.75,2.29,2.75a6.12,6.12,0,0,0,3.16-.9,9.09,9.09,0,0,0,2.46-2.06l2.17-2.63a13.27,13.27,0,0,1,2.17-2.2v.59q0,2.81-3.63,5.83c-2.43,2-4.63,3-6.62,3H419.5a3.35,3.35,0,0,1-1.14-1.11l-.38-.76a2,2,0,0,1-.15-.73c0-.33,0-.58,0-.74Z"/>
    <path class="cls-3" d="M429.87,74a28.87,28.87,0,0,1,2.55-6.21,8.58,8.58,0,0,1,3.31-3.37,12,12,0,0,1,3.52-1.29,27.76,27.76,0,0,1,4.39-.26c.12-.47.32-1.4.59-2.79s.48-2.32.61-2.81.35-1.24.62-2.25a18.43,18.43,0,0,1,1.44-3.84c.48-.88.79-1.44.9-1.67s.21-.4.27-.5a1.41,1.41,0,0,1,.26-.32,1,1,0,0,1,.76-.24c1.21,0,1.82,1.29,1.82,3.87v.53q0,3-2.58,8.41t-2.58,8.17c0,4.18,1.14,6.27,3.4,6.27a8,8,0,0,0,3.05-.88,7.93,7.93,0,0,1,3-.88l.59.06a6.57,6.57,0,0,1-3,2.4,8.27,8.27,0,0,1-3.22.88,16.23,16.23,0,0,1-1.73-.06A2.64,2.64,0,0,1,447,77c-.27-.14-.5-.24-.67-.32a1.75,1.75,0,0,1-.59-.56c-.21-.29-.37-.5-.47-.62a4.94,4.94,0,0,1-.44-.82c-.19-.43-.32-.7-.38-.82s-.19-.44-.41-1-.36-.9-.44-1.06l-1.34,1.44c-.79.84-1.33,1.4-1.65,1.7s-.84.77-1.61,1.43a10.66,10.66,0,0,1-1.9,1.41A8.34,8.34,0,0,1,433.3,79a3.14,3.14,0,0,1-2.4-.79,3.25,3.25,0,0,1-.88-1.7A15.49,15.49,0,0,1,429.87,74Zm4.72-5.92A9.43,9.43,0,0,0,432,74.23c0,2.06.55,3.08,1.64,3.08q2.29,0,5.89-3.49c2.4-2.32,3.61-4.3,3.61-5.94a3.11,3.11,0,0,0-.62-2.14,2.62,2.62,0,0,0-2-.68A7.65,7.65,0,0,0,434.59,68.11ZM449.21,51.3A17.3,17.3,0,0,0,446.72,57a23.17,23.17,0,0,0-1,5.95,4.7,4.7,0,0,0,.06.52l.53-.52c.47-.47,1.42-3.25,2.87-8.32l.06-.71V53c0-.11,0-.41,0-.87S449.21,51.37,449.21,51.3Z"/>
    <path class="cls-3" d="M455.07,66.18l-.7.17a2.09,2.09,0,0,1-1,.3,5.23,5.23,0,0,1-1.58,0c-.51-.08-.74-.28-.71-.59-.07-1.13.65-1.64,2.17-1.52s2.54-.39,2.81-1.53l2.76-10.48,1.11-1.12c.39.12.59.47.59,1.06l-.06.58-2.75,11.08v.29a4.12,4.12,0,0,0,1.4.18,14.88,14.88,0,0,0,3.34-.68,19.83,19.83,0,0,1,2.76-.67q0,3.23-4.34,3.22a18.76,18.76,0,0,1-3.05-.29,13.43,13.43,0,0,0-1.29,5.36A8.11,8.11,0,0,0,457.82,76a4.39,4.39,0,0,0,4,2,11.72,11.72,0,0,0,4.25-1.31q1.49-.92,2.19-1.29a2.88,2.88,0,0,1,1.41-.38,7.07,7.07,0,0,1,1.52.17c-1.09,2-4.26,3.24-9.49,3.87h-.29c-2.7,0-4.51-1-5.45-3a11.19,11.19,0,0,1-1.06-5Q454.89,68.24,455.07,66.18Z"/>
    <path class="cls-3" d="M485.24,62l.12,2.22a10.28,10.28,0,0,1-.14,1.91q-.15.67-.21,1a4.6,4.6,0,0,1-.29.91,6.65,6.65,0,0,0-.3.79,3.86,3.86,0,0,1-.41.88l-.44.82c-.05.12-.23.44-.52,1s-.48.87-.56,1h1.17q3.4,0,10-3.28l.47.53a22.5,22.5,0,0,1-13.24,4.92l-5.16,3.17a5.29,5.29,0,0,1-3.07.58c-1.58,0-2.6-.44-3.05-1.32A9.49,9.49,0,0,1,468.9,73a11.94,11.94,0,0,1,2.37-6.38q2.37-3.59,5.48-3.58a1.71,1.71,0,0,1,1.81,1.17,12.83,12.83,0,0,0-5.62,3.46,8,8,0,0,0-2.34,5.68,10.22,10.22,0,0,0,.11,1.76,2.22,2.22,0,0,0,.65,1.17,2.89,2.89,0,0,0,2.05.53,6.17,6.17,0,0,0,5.15-2.63A6.78,6.78,0,0,1,478,71a22.46,22.46,0,0,1,.38-4.27,11.18,11.18,0,0,1,1.55-3.9,3.42,3.42,0,0,1,2.93-1.88A2.54,2.54,0,0,1,485.24,62Zm-1.52,2.75.06-.76c0-.78-.23-1.25-.7-1.41a6.13,6.13,0,0,0-2.46,3.17,11.09,11.09,0,0,0-.94,4.22c0,1.29.19,2,.58,2.05A6.11,6.11,0,0,0,482.81,69a10.26,10.26,0,0,0,.91-4.1Z"/>
    <path class="cls-3" d="M506.75,74.85c0,.9.72,1.35,2.05,1.35a8.88,8.88,0,0,0,2.64-.47,13.08,13.08,0,0,1,2.84-.59c.91-.08,1.37.16,1.37.71a14,14,0,0,1-6.79,1.93,2,2,0,0,1-.47.06,3.81,3.81,0,0,1-2.55-.79,2.29,2.29,0,0,1-.91-1.73,8.76,8.76,0,0,1,.12-1.58,18,18,0,0,1,.56-3.75,18.41,18.41,0,0,0,.55-3.69,24.74,24.74,0,0,0-3.6.43,30.83,30.83,0,0,0-3.66.8q-1.47,7.32-5.1,9.72a3.38,3.38,0,0,1-1.61.71,1.09,1.09,0,0,1-.82-.27.85.85,0,0,1-.27-.64,1.89,1.89,0,0,1,.53-1,2.65,2.65,0,0,0,2.7-1.76,21,21,0,0,0,1.43-3.78c.37-1.34.68-2.33.91-3-1.84-.75-2.75-1.68-2.75-2.82a4.16,4.16,0,0,1,2.69-4.22,5.43,5.43,0,0,1,1.88-.35,2.7,2.7,0,0,1,1.73.65A2.22,2.22,0,0,1,501,62.6a6.2,6.2,0,0,1-1.53,3.23c.12,0,.82-.16,2.11-.47A40.86,40.86,0,0,1,508,64a35,35,0,0,1-.65,5.48A34.6,34.6,0,0,0,506.75,74.85ZM498,61.72c-.74,0-1.37.81-1.88,2.41,0,.7.57,1.27,1.7,1.7A3.5,3.5,0,0,0,499,63.42a2.72,2.72,0,0,0-.26-1.08A.86.86,0,0,0,498,61.72Z"/>
    <path class="cls-3" d="M511.73,92.6a50.46,50.46,0,0,1,.41-6.88,68.4,68.4,0,0,1,1.76-7.88l8.38-20.57h.41c1.56,0,2.34,1,2.34,2.87q0,4.17-3.63,10.37a16.79,16.79,0,0,1-4,5.1c.43,1.88,2,2.81,4.75,2.81A18.12,18.12,0,0,0,532.3,75a3.83,3.83,0,0,0,.9-.85,4.28,4.28,0,0,1,.68-.74,1.51,1.51,0,0,1,.93-.23q0,1.88-2.92,3.66a26.28,26.28,0,0,1-6.07,2.73,24,24,0,0,1-5.07,1.05,13.53,13.53,0,0,0,.53,3.08,14.25,14.25,0,0,1,.53,3.51A22.83,22.83,0,0,1,521,92a24.47,24.47,0,0,1-2.46,6.18q-1.68,3-3.67,3Q511.73,101.1,511.73,92.6Zm1.64-.64q0,7,2,7c1,0,2.06-1.67,3.14-5a27.5,27.5,0,0,0,1.61-7.56,10.17,10.17,0,0,0-.77-4.22,5.78,5.78,0,0,0-3.22-2.72c-1,.62-1.69,2.3-2.14,5A47.53,47.53,0,0,0,513.37,92ZM519,70v.58a17.69,17.69,0,0,0,2.76-4.39,11.49,11.49,0,0,0,1.17-4.69c0-.08,0-.23,0-.47s0-.37,0-.41l-.58.53Z"/>
    <path class="cls-3" d="M530.71,92.6a50.46,50.46,0,0,1,.41-6.88,70.61,70.61,0,0,1,1.76-7.88l8.38-20.57h.41c1.56,0,2.34,1,2.34,2.87q0,4.17-3.63,10.37a16.64,16.64,0,0,1-4,5.1c.43,1.88,2,2.81,4.74,2.81A18.12,18.12,0,0,0,551.28,75a4.09,4.09,0,0,0,.91-.85,4.29,4.29,0,0,1,.67-.74,1.56,1.56,0,0,1,.94-.23q0,1.88-2.93,3.66a26.21,26.21,0,0,1-6.06,2.73,24,24,0,0,1-5.07,1.05,13.39,13.39,0,0,0,.52,3.08,13.79,13.79,0,0,1,.53,3.51A22.16,22.16,0,0,1,540,92a24.47,24.47,0,0,1-2.46,6.18c-1.11,2-2.34,3-3.66,3Q530.71,101.1,530.71,92.6Zm1.64-.64c0,4.65.69,7,2,7,1,0,2.06-1.67,3.14-5a27.5,27.5,0,0,0,1.61-7.56,10.18,10.18,0,0,0-.76-4.22,5.82,5.82,0,0,0-3.22-2.72q-1.47.93-2.14,5A46.45,46.45,0,0,0,532.35,92ZM538,70v.58a18,18,0,0,0,2.75-4.39,11.49,11.49,0,0,0,1.17-4.69c0-.08,0-.23,0-.47a3.08,3.08,0,0,1,0-.41l-.59.53Z"/>
  </g>
  <g class="cls-4">
    <g class="cls-4">
      <path class="cls-5" d="M539.44,128.4a18.75,18.75,0,0,0-2.11.64l-4.3-.33a21.23,21.23,0,0,1-1.53,2.08c-1,.5-2.12,1-3.09,1.43,2.79.81,4.06.9,6.13,1.88a21.55,21.55,0,0,1-1.83,1.25l-6.71-.53-3.54-.29a6.65,6.65,0,0,1-.93-.88l-6,.92-1.9-.15a28.57,28.57,0,0,0-2.8-.8c-.32,1.07-2.85-.06-3.89.56-3.83-.54-6.32-2.07-7.85-.91-.83-.53-3-.88-5.21-1-2.15,1.69-2.26-1.45-4.53.23-.43-.85-4.85-1.2-6.07-.48a172.77,172.77,0,0,0-20.95-.85c-3.82.05-10.76-.21-13.8-1.38-1.23.14-.68.7-1.1,1.08-.72-.18-2.6,0-2.29-.47-.23-.37-1-.38-1.65-.43-.83.11-.84.46-1,.74-9.61-2.61-17.46,1.11-26.92-1.55-.14,1.26-3.3.09-3.72,1.39-3.41,0-6.8,0-10.08,0-4.26.19-9.05-.54-13.52-.78-1.83-.6-3.39-.32-3.91.28-3.05-.19-6.14-.32-9.2-.5a11.62,11.62,0,0,0-6.69-.24l-6.07-.48c-3.53-.63-5.6-.67-5.17.17l-1.14-.09c-1.92-.09-3.74-.12-5.69-.16-.53,0-1.2.08-1.86.09-1.37-.17-2.84-.4-4.21-.57-1.6-.53-2.61.32-3.37.55l-6.06-.48c-2.62-.61-3.34.14-4.3,0l-11-.87a17.07,17.07,0,0,1-5,.12c-.18-.19-.24-.36-.42-.55l-1.77-.14c-2.09.3-3.78.28-5.39.68l-1.77-.14c-.33-.15-.69-.23-1.14-.38-1.14-.1-2.41-.2-3.55-.28s-2.09,0-3.15,0c-.7.12-1.41.24-2.13.42a5.54,5.54,0,0,0-.9-.65c-1.16,0-2.1,0-3.16,0l-3-.24-2.87.58c-1.84,0-3.09-.42-3.72-1.39-1.13.2-2.26.4-3.37.54L277,126c-1.94.25-4,.44-5.92.69-3.18-.19-6,.34-9.19-.49-.76.23-1.51.46-2.13.7-1.16,0-2.09,0-3.16,0-1.74,1-5.67-.51-7.79.49l-5.43-.43.69-1.63c.5-.25,1-.5,1.46-.69,1,.13,2,.32,3,.46,1.71.6,1.85-.67,2.86-.59,1.89-.14,3.78-.28,5.77-.35l4.81.38c3.52-.3,6.92-.61,10.42-.86L276,124c1.82,0,3.76.06,5.56.15a14,14,0,0,1-1.2-1.49c1.47-.69,5,.17,4.23-1.34,5.75,0,12.71,1.46,16.71-.88a10.17,10.17,0,0,1,5.63-1.24,7.83,7.83,0,0,0,1.43.92,5.24,5.24,0,0,0,1.3,1.26c1.52.41,2-.42,2.89-.64.76-.57,1.66-1.14,2.55-1.71,5.41.2,10.66.44,16,.69,2.48,1,3.61-.18,5.15-.41l2.4.2c1.24.15,2.46.36,3.57.51,3.23.72,2.77-.36,3.88-.21a7.93,7.93,0,0,1,1.38-.19c4,1.25,4.67-.21,6.19.21.69.22,1.38.45,2.17.74.48-.19.93-.33,1.37-.47l1.27.1c4,.78,2.31-.8,4.64-.44.48.09,1.06.26,1.65.42,1.11-.15,2.18-.23,3.27-.32a7.64,7.64,0,0,1,1.83,1.53l.64,0c2.47-.9,7.92-.82,10.93-.52,2.24-.35,6.15.31,9.11.72,2.33-.86,5.24-.34,7.45,0l6.07.48c2,.16,4.05.31,6.07.48,1-1.09,2.85-.24,3.49-.83,1.3-.3,5.1,0,5.95.76l1.26.1c2.71-.83,2.88-.29,6-.92,4.78.44,9.67.94,14.43,1.43,1.06,0,.44-.72,1.5-.46,2.62-.31,1,1,3.32,1.13,1.78-1.13,4.66.08,6-.91,3,1.62,7.48.24,11.42,1.13,6.41,0,13-.08,19.51-.08a29.59,29.59,0,0,1,8.77,1.51l1.77.14c1.37.16,2.84.39,4.18.62.3-.39.69-.7,1-1,5,.46,10.17,1,15.09,1.42,4.57-.62,7.47.25,12.35.46,1-.21,1.75-.73,2.88-.64l2.41.19a31.42,31.42,0,0,1,8.57.44l4.8.38C545.71,129,542,128.6,539.44,128.4Z"/>
      <path class="cls-6" d="M529,126.42c-1.13-.09-1.88.43-2.88.64-4.88-.21-7.78-1.08-12.35-.46-4.92-.44-10-1-15.09-1.42-.27.33-.66.64-1,1-1.34-.23-2.81-.46-4.18-.62l-1.77-.14a29.59,29.59,0,0,0-8.77-1.51c-6.54,0-13.1.07-19.51.08-3.94-.89-8.45.49-11.42-1.13-1.34,1-4.22-.22-6,.91-2.31-.12-.7-1.44-3.32-1.13-1.06-.26-.44.43-1.5.46-4.76-.49-9.65-1-14.43-1.43-3.13.63-3.3.09-6,.92l-1.26-.1c-.85-.76-4.65-1.06-5.95-.76-.64.59-2.5-.26-3.49.83-2-.17-4-.32-6.07-.48l-6.07-.48c-2.21-.35-5.12-.87-7.45,0-3-.41-6.87-1.07-9.11-.72-3-.3-8.46-.38-10.93.52l-.64,0a7.64,7.64,0,0,0-1.83-1.53c-1.09.09-2.16.17-3.27.32-.59-.16-1.17-.33-1.65-.42-2.33-.36-.65,1.22-4.64.44l-1.27-.1c-.06.17-.14.34-.23.57l-1.14-.1c-.79-.29-1.48-.52-2.17-.74-1.52-.42-2.14,1-6.19-.21a7.87,7.87,0,0,1-.69-1.44,17.89,17.89,0,0,1,1.72-1c4,.43,4.47,0,6.81,0,1.3.63,3,.41,4.18.62s2.34.36,3.55.57c7.51-.74,11.54-.07,17.64-.29a9.86,9.86,0,0,0,6.4-.3c-4.24-1.09-4.14-.1-6.16-.25a16.82,16.82,0,0,1-1.44-.93,47.26,47.26,0,0,1-14.55-1.15c-1.65.22-3.21.5-4.75.72-1.46.06-3.05.11-4.53.23l-3.61-1.68c-4.19-.91-6.34-1.08-8.11-1.51-1.64.16-3.15.33-4.66.5-2.36-.3-4.71-.6-7.22-.86l.81-1.91,3,.24c4.27,1.67,4.91.45,7.34.58a3.66,3.66,0,0,0,1,.66c1.21-.07,2.54-.14,3.78-.28,2.36.59,4.62,1.12,6.86,1.7,2.18-1.45,4.21-1,5.37-1,1,1.12,3.68-.06,5.69.16.77-.29,2.71-.25,3.89-.56.89.07,1.65.12,2.53.2l.51,0-.36.85c1.37.16,2.84.4,4.18.62a12.66,12.66,0,0,1,4.54-.22l1.83-1.54,2.4.19c.56.22,1.12.44,1.66.71,1.31-.3,2.71-.54,4.12-.77.36.08.69.22,1,.31l1.9.15a9.65,9.65,0,0,0,1.08,1.77c2.24-1.28,6.27.32,9-.68,3.4.91,4.36.81,5.32.71a4.28,4.28,0,0,1,1,.66c-.52.31-1,.61-1.71,1a1.51,1.51,0,0,1,.41.55l4.31.34c-2.21.58-3.87.8-4.42-.06-1.06,0-2.1,0-3.16,0-6.65.58-13.7-1-18.39.52,2.6.67,3.87,1.06,4.72.6,10.15,1,23.18.21,34.12,2.47,1.18-.31,2.33-.57,3.51-.88,6,.3,12.83,1.48,17.79.88-.23.22.08.41.42.56,2.58.38,3.22-1.14,5-1.23l3.46.79c.74,1.63,3.9-.27,6.06.19,1.93.38,4,.72,5.83,1,2.86,0,8.31.13,10-1.41.55-.07,1-.15,1.39-.18,3.89.07,7.88.22,11.74.35l-.8,1.9c.82.53,2.83.4,4.17.62l1.78.14a8.1,8.1,0,0,0,.87-.51l6.07.48c1.18-.31.83-1,2.34-1.2l2.53.2c.52.62,1.2,1.19,1.71,1.81s2,.33,2.92.53c1.09-.73,3.7-.41,5.38-1l3.66.29c.45.5,2,.33,2.94.46,1.65,1.06,3,.88,3.2,1.41A2.27,2.27,0,0,0,529,126.42Z"/>
      <path class="cls-5" d="M518.7,124c-1.68.56-4.29.24-5.38,1-1-.2-2.48,0-2.92-.53s-1.19-1.19-1.71-1.81C512,123.05,515.38,123.48,518.7,124Z"/>
      <path class="cls-5" d="M497.75,123.13a8.1,8.1,0,0,1-.87.51l-1.78-.14c-1.34-.22-3.35-.09-4.17-.62l.8-1.9c2.23.29,4.36.51,6.59.81l7.84.62c-1.51.17-1.16.89-2.34,1.2Z"/>
      <path class="cls-5" d="M480.88,115.42c-2,1.75-5.6,0-7.87,1a16.45,16.45,0,0,1-1.56-.93c.14-.34.3-.73.45-1.07,1.43-.29,2.83-.52,4.12-.77,1.75.48,3.38,1,5,1.49C481,115.2,480.93,115.31,480.88,115.42Z"/>
      <path class="cls-5" d="M446.35,109.62a9.54,9.54,0,0,0-1.53-.7l.33-.78c1.43-1.22,3.42-.37,5.17-.46-.37.55-.05,1.32-1.2,1.58C448.16,109.36,447.33,109.47,446.35,109.62Z"/>
      <path class="cls-7" d="M450.89,115.26c-.89-.36-1.78-.73-2.7-1-1.53-.41-2.44.21-3.88.22l-3.4.6c-.27.32-.66.64-1,1-1.22-.21-2.44-.42-3.55-.57a7.91,7.91,0,0,1-.7-1.44c-5-1.15-6.39,0-8.8.11l-1.27-.1c-1.74-.19-3.47-.45-5.34-.65-.78,0-1.72,0-2.5,0-1.31,0-2.5,0-3.79,0l-1.13-.09-3.67-.29L408,113c-1.44,0-2.86,0-4.3,0l-1.26-.1c-2.35,0-4.58,0-6.94,0-.41,0-.83.11-1.24.14l-1.9-.15c-.35-.09-.68-.23-1-.31-2.49-.61-5.64-1.21-5.78.06l-2.4-.19c-1.12-.15-2.33-.36-3.55-.57-2.15.76-4.7.61-6.64.86l-.51,0c-.88-.08-1.64-.13-2.53-.2-.91-.31-1.81-.67-2.7-1l-3.54-.28c-1.12.78-4.42.87-3.67-.29a9.74,9.74,0,0,1-5.05-.11c-.78,0-1.72,0-2.52.09-1.19,1-3.05.4-4.12.78l-4.81-.38c-.66-.29-1.47-.52-2.16-.76-1.16.9-4,.68-3.9.28-.45-.5-.64-1,.23-.56-2.66-.21-4.38-.47-4.54.22-1.84,0-3.68.06-5.65.07-1.12-.14-2.33-.35-3.58-.51l-.33.78-3.54-.28c-1.85-.26-3.6-.45-5.44-.72l-.36.84-6.58-.52c-1.44.93-3.32.44-4.63.45-.77-.64-.92-1.52-4.18-.62-1.19,0-2.48,0-3.66,0l-7.34-.58c-1.08.73-3.7.4-5.37,1-1.58-.3-3.15-.6-4.7-1-5.53-.21-8.67.41-14,.57-2.38-.53-4-.37-3.45-.79,1.86-1,4.07-.67,4.86-1.3,1.44,0,3,0,4.42.06,1-1.08,5.39.54,5.49-1.25,1.2.27,2.4.54,3.44.85,5.19-.22,12.14,0,17.88-.55,1.34.22,2.71.39,4.05.61.81-.05,1.93.38,2.53-.09,1.91-.2,6.33-.14,7.73,1.19l1.13.09c2.66-.72,3.93-.33,4.76-.73-.28-.89,2.18-.52,3.39-.6,2.14-.12,1.33.57,3.21,1.36,2.17-1.11,5.24-.63,6.23-1.42,6.4,1.55,12.85.2,19.71,1a6.81,6.81,0,0,1,1.32,1.21c1.11-.14,2.24-.35,3.37-.55.88-.21,1.88-.43,2.73-.59,4.93,2.24,7.38-2,11.13.59.8,0,1.8.37,2.52-.09-.35-1,1.35-.71,2.74-.6-.17.4-.73,1.11.81,1.17,2.23.58,4-.79,5.38-1l5.43.43c4.91.45,9.67.94,14.43,1.43a4.1,4.1,0,0,0,2-.13c-.36-1,1.36-.76,2.75-.65-.37.26.09.41.4.61,2.24,0,3.09-.51,5.68-.13-.31.73,1.32.57,1.29,1.26,7.4-.81,15.09.5,23.2.15-4.61-1.75-11.82-2.32-16.2-1.86-2.17.18-1.05-.6-2.83-.74-4.74.72-10.54-.72-15.51-.41-4.46,0-11.5-.63-15-.09-1.07-.26-2.26-.53-3.45-.79-.15-.59-.29-1.19-.45-1.72,1.74-.09,3.33-.14,5-.18.94-1,3.81,0,5.65-.08l6.08.48a13.39,13.39,0,0,1,3.51-.88c1.92.39,3.87.71,5.83,1,6.48-.18,13.3.7,19.81.76a74.17,74.17,0,0,0,10,.2c2.76.28,5.5.61,8.36,1l-.33.78-3.39.6c-1.18,1.24,2.51.84,4,1.13l.51,0a30.9,30.9,0,0,0,5.83,1c1.25.15,2.46.37,3.57.51.07.47,0,.93.07,1.4-.24.56-.47,1.12-.69,1.62C453.37,115.28,452.2,115.24,450.89,115.26Z"/>
      <path class="cls-5" d="M401.18,105.18a13.39,13.39,0,0,0-3.51.88l-6.08-.48c.79-.63,1.43-1.22,2.08-1.8,2.32.06,4.49.18,6.82.25C400.73,104.39,400.94,104.82,401.18,105.18Z"/>
      <path class="cls-8" d="M305.23,127.4c-4.56.27-6.86,1.71-10.31.57-1.15,0-2.47,0-3.78,0-3.19.74-8.24-.3-12.26-.68-2,2.63-7.81.54-10.63,1.66-3.19-.2-4.81-1.31-8.25-1.53-3,1.22-7.28.53-7.83,2.46a19.82,19.82,0,0,1-4.19-.62c-2,.94-4.61.39-7.06.31-1.15.26-2.33.57-3.48.82-5.33-1-8,.36-13.11-.22-1.91.49-5.31-.13-5.62,1.53a23.25,23.25,0,0,0-9,.67c1.73,1.47,6,1.18,5.68,2.95-3.2,2-8.45-1.66-9.79.9-1.22-.21-3.52,0-3.55-.57-3.28-.6-3.88-2.57-7.33-3.36-1.18-.32-3.36-.73-2.47-1.59.72-.46,1.59-1,2.46-1.48,1,0,2.09,0,3.13,0,.91.31,1.81.67,2.7,1,1.2-.37,3.22-.5,3.61-1.11,2.28.47,2.91.52,5.14-.4,1.25-.48,2.5-1,3.72-1.39,3,0,5.86.06,8.84.12l8.69.16c1.72-.67,5-.3,7.27-.81.48.09,1.07.26,1.68.36,1.33-.07,2.54-.15,3.88-.21l5.43.43c2.12-1,6.05.53,7.79-.49,1.07,0,2-.07,3.16,0,.62-.24,1.37-.47,2.13-.7,3.17.83,6,.3,9.19.49,1.94-.25,4-.44,5.92-.69l1.26.1c1.11-.14,2.24-.34,3.37-.54.63,1,1.88,1.42,3.72,1.39l2.87-.58,3,.24c1.06,0,2-.08,3.16,0a5.54,5.54,0,0,1,.9.65c.72-.18,1.43-.3,2.13-.42,1.06,0,2,0,3.15,0s2.41.18,3.55.28C304.54,127.17,304.9,127.25,305.23,127.4Z"/>
      <path class="cls-7" d="M258,111.43c0,.06-.07.17-.12.28-.78,0-1.71,0-2.49,0l-4.31-.34-3-.25c-.73,1.11-3.62-.11-5.8.42-.11.28-.21.5-.33.78a8.1,8.1,0,0,1-.87.51c.05-.11.1-.22.12-.28-1.27-.39-2.54-.78-3.84-1.11l-3-.24c-1.37.12-1.32.94-2.35.91l-1.77-.14c-.22.51-.46,1.07-.69,1.63-1.2.37-1.8.85-2.74.6-4.81-.38-1.77.78-2.58,1.47a2.22,2.22,0,0,1,.29.84,121.34,121.34,0,0,0,12.2-.72c.59.16,1.17.32,1.78.43,1.16,0,2.47,0,3.78,0,.48-.19,1-.44,1.48-.69l5.44.43c1.9.44,3.81.88,5.73,1.26-.67.35-1.44.64-2.24,1-1.07-.26-1.87.09-3.25.27-4.79.49-8.81-.81-11.45.48-4.84-1.54-10.28,1.45-14.67-1.16l-5.1,1.86c.49.39.85.76,1.32,1.21-.22.5-.45,1.06-.78,1.85,2.18.4,4.26.74,6.46,1.09-2.52,1-4.15.54-5.37,1l-1.27-.1c-1.58.34-3.29.66-4.87,1l-.51,0c-1.82-.32-3.52-.62-5.32-1l-.51,0c-1.56,1.21-3.46.77-5.41.73-1.67-.07-3.23-.08-4.9-.15l-.75.23a8.19,8.19,0,0,0,.69,1.44c.28.6,2.66.21,2.05,1l-.33.78a3.17,3.17,0,0,0-.87.51c-1,0-2.1,0-3.13,0-1.65-.42-.63-1-.69-1.45-.45-.5-2-.33-2.94-.46-3.92-1.88-4.72-.61-8.36-1-1.13-.72-2.24-1.5-3.37-2.23.95-.39,1.9-.78,3-1.16l.69-1.63,3,.25,1.93-1.77c1.36.17,2.83.4,4.18.62a8.74,8.74,0,0,1,1.38-.18,6.87,6.87,0,0,1,1,.37c2.66.51,3.53-.3,5.11-1.56,1.24-.77,3,0,4.62-.74.17-.39.31-.73.45-1.07.16-.68.17-1.31.3-1.94l-2.52-.2a14.49,14.49,0,0,0-1.32-1.21,7.71,7.71,0,0,0-4.31-.34l-.5,0c-.28-.89-.58-1.72-.88-2.56-1.26-.1.51-.88-.57-1.43-1.51-.12-2.9-.24-4.29-.34.79-.35,1.57-.63,2.24-1a17.92,17.92,0,0,0,1.72-1c-1.12-.44-2.09-.92-3.22-1.36,1.72-1,3.82-.68,5-1.29,1.72.26,3.6.46,5.32.72l-.8,1.9,3,.24c2.56-1.42,5.5-1,8.41-.72-.57.41-1.12.78-1.71,1.25,4.59.6,5.45-.2,8.47.67,4-.2,2.78-1,5-1.29-5.65-1.48-7.69.56-10.38-.81a22.74,22.74,0,0,1,1.56-2.14c.7-.12,1.28-.25,2-.37,3.52-.3,6.9-.55,10.42-.85,3.78-.57,8.32.13,12.72-.39,1.08-.09,2.16-.18,3.27-.32a17.72,17.72,0,0,0,7.55.07l1.14.09c-.21.51-.45,1.07-.69,1.63-3.85.45-5.34,1.49-7.49,1.32l-2.4-.19c-.71.12-1.28.25-2,.42-1-.19-1.93-.38-2.92-.52-2.3-.41-2.65,1-4.24,1.06-1.72-.25-3.59-.46-5.31-.71-2.13-.23-1.07,1-2.59,1.48,1,.08,2,.15,3,.24,2,.61,3-.58,4.64-.45.91.3,1.8.66,2.7,1,2.65.85,2-1,4.12-.77,4.61,1.46,4.46,0,6.82.25,2.66,1.14,3.34.15,4.69.66a1.55,1.55,0,0,0,.42.55c.91.31,1.85.56,2.79.8l4.81.39Z"/>
      <path class="cls-5" d="M204.25,118.31c-1.62.74-3.38,0-4.62.74-1.53-.41-3.06-.82-4.61-1.18.72-.46,1.27-.83,1.84-1.24.78-.29,2.7-.2,2.25-1,1.1-.15,2.23-.35,3.37-.55l2.52.2c-.13.63-.14,1.26-.3,1.94C204.56,117.58,204.42,117.92,204.25,118.31Z"/>
      <path class="cls-9" d="M194.52,120.61a6.87,6.87,0,0,0-1-.37,8.74,8.74,0,0,0-1.38.18c-1.35-.22-2.82-.45-4.18-.62L186,121.57l-3-.25-.69,1.63c-1.08.38-2,.77-3,1.16-2.17-1-3.35-2-3-3.31-2.52-.84-2.64-.85-3.22-1.36.19-.45.39-.9.69-1.63a5,5,0,0,0-.06-1.39,12.85,12.85,0,0,0-1.2-1.49l2.86-.87c-.55-.57-1.2-1.2-1.71-1.82a16.55,16.55,0,0,1,1.71-1c1.73-.38,3.61-.81,5.49-1.24s3.55-.65,5.38-1c-.06-.18-.24-.37-.29-.54.62-.54,1.21-1,1.83-1.54l3.6-1.11c1.13.44,2.1.92,3.22,1.36a17.92,17.92,0,0,1-1.72,1c-.67.36-1.45.64-2.24,1,1.39.1,2.78.22,4.29.34,1.08.55-.69,1.33.57,1.43.3.84.6,1.67.88,2.56-2.11.36-4.12.78-6.25,1.19-1-.31-2.24-.58-3.31-.84-.9.57-1.79,1.13-2.71,1.76l1.12,2c1.13-.2,2.11-.36,3.37-.55,2.12.23,4.35.52,6.45.8,1.55.36,3.08.77,4.61,1.18C198.05,120.31,197.18,121.12,194.52,120.61Z"/>
      <path class="cls-5" d="M189,116l-4.94-.39a.92.92,0,0,0-.5-.33l3.21-1.43c1.07.26,2.26.53,3.31.84C189.78,115.14,189.36,115.51,189,116Z"/>
      <path class="cls-8" d="M538.41,130.81c-1.65.51-3.28,0-6.91,0a21.23,21.23,0,0,0,1.53-2.08l4.3.33a6.29,6.29,0,0,1,.9.66A.91.91,0,0,1,538.41,130.81Z"/>
      <path class="cls-8" d="M525.3,124.73c1.2-.66,2.6-.26,3.89-.21-.22.5-.46,1.06-.69,1.62C528.33,125.61,527,125.79,525.3,124.73Z"/>
      <path class="cls-8" d="M522.46,134.53c-2.73,0-5.61.9-6.94,0l6-.92A6.65,6.65,0,0,0,522.46,134.53Z"/>
      <path class="cls-8" d="M512.15,135.11c-1.08.09-2.17.18-3.27.32-.67-.28-1.48-.52-2.17-.75-4.47-.23-9-.54-13.52-.78-4.23.71-10.26-.46-15.42-.64-4,.79-10.16-.68-14.88-.36-15.4-.06-32.43-1.52-48.2-1.61-.22.51-1.74.1-2.82-.74.42-1.3,3.58-.13,3.72-1.39,9.46,2.66,17.31-1.06,26.92,1.55.13-.28.14-.63,1-.74.63.05,1.42.06,1.65.43-.31.43,1.57.29,2.29.47.42-.38-.13-.94,1.1-1.08,3,1.17,10,1.43,13.8,1.38a172.77,172.77,0,0,1,20.95.85c1.22-.72,5.64-.37,6.07.48,2.27-1.68,2.38,1.46,4.53-.23,2.18.12,4.38.47,5.21,1,1.53-1.16,4,.37,7.85.91,1-.62,3.57.51,3.89-.56a28.57,28.57,0,0,1,2.8.8C513.12,134.67,512.65,134.86,512.15,135.11Z"/>
      <path class="cls-8" d="M496.16,130a6.27,6.27,0,0,1,3.37-.55C501.74,131,496.63,130.41,496.16,130Z"/>
      <path class="cls-8" d="M492.61,129.39c-5.74,1.52-9,0-13.76-.21C483.84,128.82,488,128.57,492.61,129.39Z"/>
      <path class="cls-8" d="M486.57,115.58c-1.59,1-5.39.68-5.69-.16.05-.11.1-.22.12-.28-1.6-.53-3.23-1-5-1.49.79-.35,1.57-.63,2.37-1,2.9-.07,2.22.92,3.48,1.95a8,8,0,0,0,1.39-.18l3,.24a1,1,0,0,0,.52.33Z"/>
      <path class="cls-8" d="M478.6,120.81l-3.81-1.17c1.62-.45,5.31-.51,5.2,1C479.58,120.66,479.15,120.74,478.6,120.81Z"/>
      <path class="cls-8" d="M470.76,120.19c-2.68-.45-4.95,0-7.55-.08-4-.37-6.94-.89-9.49-1l-3-.24c-.24-.65-2.41-.48-1.95-1.25.71-.76,1.45-1.57,2.16-2.32,1.31,0,2.48,0,3.79,0q3,.26,6.07.48c1.13-.19,2-1,3.37-.54,2.45.08,4.9.15,7.33.29a16.45,16.45,0,0,0,1.56.93c-3.16.68-5.79.71-7.63,1.66,1.16,1,2.49-.32,3.79,0,.71.46,3.09.71,4.35,1.45C472.64,119.76,471.64,120,470.76,120.19Z"/>
      <path class="cls-8" d="M464,128.81c.36-.84,1.56-1.21,3.49-.82C467.74,129.17,465.71,129.65,464,128.81Z"/>
      <path class="cls-8" d="M458.56,112l-3.26.26c-1.11-.14-2.32-.36-3.57-.51a30.9,30.9,0,0,1-5.83-1l.45-1.07c1-.15,1.81-.26,2.77-.36,1,.19,1.82.32,2.91.52,1.09-.09,2-.19,3.27-.32,0,1.62,1.36,1.44,2.47,1.59a7.3,7.3,0,0,0,1,.37C458.72,111.59,458.65,111.75,458.56,112Z"/>
      <path class="cls-8" d="M426.82,107c-6.51-.06-13.33-.94-19.81-.76-2-.33-3.91-.65-5.83-1-.24-.36-.45-.79-.69-1.15,4.89-1.07,10.95.69,15.75-.15,3.27.9,8.14.82,10.94,2.26l5.65-.08c.65-.3,4.45-.34,4,1.12A74.17,74.17,0,0,1,426.82,107Z"/>
      <path class="cls-8" d="M388.27,129.78c-1.95.6-4,.74-3.91.28C384.88,129.46,386.44,129.18,388.27,129.78Z"/>
      <path class="cls-8" d="M391.59,105.58c-1.84,0-4.71-.89-5.65.08-1.71,0-3.3.09-5,.18l-4.3-.34a2.1,2.1,0,0,1,.12-.28l-2.47-1.59a27,27,0,0,0-4.51.46l-1.26-.1-4.81-.38a21.3,21.3,0,0,1-3.39.6l-1.26-.1-2.86.88-6.07-.48c-3.24-.38-7.66-1.65-12-1.24-4.36-.18-8.61-.34-13-.45a42.42,42.42,0,0,1-8.69-.17c-2.28-1.4-5.05-.11-8.2-.07-.2.16-.53.31-.75.52l-.63,0c-.84-.18-1.55-.35-2.29-.47l-5.14.12c-2.75,0-5.48,0-8.08-.06a1.16,1.16,0,0,1-.4-.61c.9-.57,1.79-1.14,2.55-1.71,3.53.33,8.64-1.87,10.26,1.1,1.69-2.13,4.24-1.06,5.28-.74l4.75-.73c3.08-.16,1.26.74,3.1,1.64,1.07-.67,2.24-1.28,3.31-1.94,5.06.68,10.37.18,14.66.86.2-.79,2.91-.69,4.64-.44l12.14,1a1,1,0,0,0,1.14.09c-.22-1.35,4.17-.6,5.1-1.57,1.52.12,1.64,1.06,2.35,1.87,1.55-.29,3.09-.51,4.75-.73.9.65,3.56.22,4.59.88,4.5-.45,3.47,1.38,6.07.49l.22-.51c2.71,1.32,8.19-.51,9.4,1.56.81-.06,1.93.38,2.52-.1,1.55.07,4.48-.68,6,.77C393,104.36,392.38,105,391.59,105.58Z"/>
      <path class="cls-9" d="M387.09,117.75a9.86,9.86,0,0,1-6.4.3c-6.1.22-10.13-.45-17.64.29-1.21-.21-2.3-.41-3.55-.57l-3.67-.29c-.07-.12-.3-.2-.51-.33-2.34,0-2.81.47-6.81,0a17.89,17.89,0,0,0-1.72,1,7.87,7.87,0,0,0,.69,1.44,7.93,7.93,0,0,0-1.38.19c-.66-.29-1.48-.53-2.16-.76-.51,0-.89-.06-1.27-.1l-.92-.59-1.27-.1c-.57.42-1.11.78-1.83,1.25l-2.4-.2c-.27-.3-.53-.62-.79-.93-2.2.58-4.2.66-4.36,1.34-5.38-.25-10.63-.49-16-.69-1.73-.25-3.57-.51-5.32-.71s-1.37.76-2.85.88a10.17,10.17,0,0,0-5.63,1.24c-1.55-.36-3-.65-4.56-1-1-2.86-4.81.55-8.36-1-1.27.83-3,.23-4.42,0l-7.34-.59-3-.24c-3.61.82-7-.38-7.9,1.06a35.94,35.94,0,0,1-7.63-1.41c-.41,0-.84.1-1.24.13.12.65.22,1.35.33,2,1.61.82-.27,1-.68,1.62a2.66,2.66,0,0,1,.3.84c.33.14.68.23,1.14.38,2,.21,4,.49,5.95.76,2.62.61,2.78-.71,5.16-.46,1.17.32,3.54.28,3.31,1.13-3.5.25-6.9.56-10.42.86l-4.81-.38c-2,.07-3.88.21-5.77.35-1-.08-1.15,1.19-2.86.59-1-.14-2-.33-3-.46-.47.19-1,.44-1.46.69-.94-.25-1.88-.5-2.8-.8l-1.9-.15c-.22.21-.54.36-.74.52s-.14.34-.24.56c-2.41-.48-4.7-1-7-1.42-2.07,0-4.12-.15-6.19-.2-2.2-.35-4.28-.69-6.46-1.09a2.62,2.62,0,0,0-.54-.28c1.58-1.55-.16-2.09,0-2.78l5.1-1.86c4.39,2.61,9.83-.38,14.67,1.16,2.64-1.29,6.66,0,11.45-.48,1.38-.18,2.18-.53,3.25-.27.8-.34,1.57-.63,2.24-1-1.92-.38-3.83-.82-5.73-1.26l-5.44-.43c-.5.25-1,.5-1.48.69-1.31,0-2.62,0-3.78,0-.61-.11-1.19-.27-1.78-.43a121.34,121.34,0,0,1-12.2.72,2.22,2.22,0,0,0-.29-.84c.81-.69-2.23-1.85,2.58-1.47.94.25,1.54-.23,2.74-.6.23-.56.47-1.12.69-1.63l1.77.14c1,0,1-.79,2.35-.91l3,.24c1.57.3,3,.59,4.59.88.12-.28.22-.5.33-.78,2.18-.53,5.07.69,5.8-.42l3,.25c-.16.39-.3.73-.47,1.12a12.4,12.4,0,0,0,4.78-.78c.78,0,1.71,0,2.49,0,.05-.11.1-.22.12-.28l.69-1.62L259,109l1.27.1c-.57.42,1.07.26,3.45.79,5.3-.16,8.44-.78,14-.57,1.55.35,3.12.65,4.7,1,1.67-.57,4.29-.24,5.37-1l7.34.58c1.18,0,2.47,0,3.66,0,1.37-.76,4.92-.83,4.42.06-.1.22-.17.39-.24.56,1.31,0,3.19.48,4.63-.45l6.58.52.36-.84c1.84.27,3.59.46,5.44.72l3.54.28.33-.78c1.25.16,2.46.37,3.58.51,2,0,3.81,0,5.65-.07.16-.69,1.88-.43,4.54-.22-.87-.42-.68.06-.23.56-.05.4,2.74.62,3.9-.28.69.24,1.5.47,2.16.76l4.81.38c1.07-.38,2.93.17,4.12-.78.8,0,1.74-.09,2.52-.09a9.74,9.74,0,0,0,5.05.11c-.75,1.16,2.55,1.07,3.67.29l3.54.28c.89.36,1.79.72,2.7,1-1.18.31-3.12.27-3.89.56-2-.22-4.72,1-5.69-.16-1.16,0-3.19-.49-5.37,1-2.24-.58-4.5-1.11-6.86-1.7-1.24.14-2.57.21-3.78.28a3.66,3.66,0,0,1-1-.66l-3.39.6c-1.3-.33-4.37.12-4-1.18l-3-.24-.81,1.91c2.51.26,4.86.56,7.22.86,1.51-.17,3-.34,4.66-.5,1.77.43,3.92.6,8.11,1.51l3.61,1.68c1.48-.12,3.07-.17,4.53-.23,1.54-.22,3.1-.5,4.75-.72a47.26,47.26,0,0,0,14.55,1.15,16.82,16.82,0,0,0,1.44.93C383,117.65,382.85,116.66,387.09,117.75Z"/>
      <path class="cls-8" d="M375.16,129.56a14.23,14.23,0,0,1-6.69-.24A11.62,11.62,0,0,1,375.16,129.56Z"/>
      <path class="cls-8" d="M362.4,128.84c-2.33.57-4.86.66-5.17.17C356.8,128.17,358.87,128.21,362.4,128.84Z"/>
      <path class="cls-8" d="M356.09,128.92c-2.51,1.31-3.73.46-5.69-.16C352.35,128.8,354.17,128.83,356.09,128.92Z"/>
      <path class="cls-8" d="M348.54,128.85c-3.22.5-6.4.59-7.58,0,.76-.23,1.77-1.08,3.37-.55C345.7,128.45,347.17,128.68,348.54,128.85Z"/>
      <path class="cls-8" d="M334.9,128.35c-2,.47-5.33.85-4.3,0C331.56,128.49,332.28,127.74,334.9,128.35Z"/>
      <path class="cls-8" d="M314.58,127.55c-3.67.64-7.75,1-7.58,0,1.61-.4,3.3-.38,5.39-.68l1.77.14C314.34,127.19,314.4,127.36,314.58,127.55Z"/>
      <path class="cls-8" d="M283.07,102.57c-3.42.66-1.72-1.18-4.17-.33-3.62-.11-8.07.23-12.08.44l-3-.24c-1.14-.38-2.29-.76-3.31-1.13a12.33,12.33,0,0,0-5.74,1.51c-.76,0-1.64-.13-2.4-.19l-1.14-.09a17.72,17.72,0,0,1-7.55-.07c-1.11.14-2.19.23-3.27.32-4.4.52-8.94-.18-12.72.39-3.52.3-6.9.55-10.42.85-.83-.82-1.79-1.65-2.74-2.47a86.16,86.16,0,0,1,9.38-1.18c4.87-.07,8.14-.69,13.22-.34.72-1.39,4.85,1.19,5.38-.68,1.35.22,3.2.78,4.81.38-.66-1.21,3-1.15,4-.55-.37.26.09.41.39.61a3.85,3.85,0,0,0,1.9-.14c-.49-1,1.87-.72,2.47-1.19a4.47,4.47,0,0,0,3.36-.55c3.83-.39,8.49,2.18,10-.08,2.65-.08,6.8,1.23,7.67-.21-.87-1.34,3-.52,2.07-1.8,9.16-.32,5.91,3,9.56,5.51C286.84,101.71,285,102.14,283.07,102.57Z"/>
      <path class="cls-8" d="M199.11,115.65c.45.78-1.47.69-2.25,1-.57.41-1.12.78-1.84,1.24-2.1-.28-4.33-.57-6.45-.8.17-.39.3-.73.45-1.06.34-.5.76-.87,1.08-1.31,2.13-.41,4.14-.83,6.25-1.19l.5,0a7.71,7.71,0,0,1,4.31.34,14.49,14.49,0,0,1,1.32,1.21C201.34,115.3,200.21,115.5,199.11,115.65Z"/>
      <path class="cls-8" d="M196.34,104.58c-1.17.61-3.27.33-5,1.29l-3.6,1.11c-.65-.34-1.41-.69-2.07-1l.57-1.34c3.48.1,6.76-1.79,9.67-.63A1.68,1.68,0,0,0,196.34,104.58Z"/>
      <path class="cls-6" d="M471.45,115.49c-2.43-.14-4.88-.21-7.33-.29.36-.84.69-1.63,1-2.41l1.14.09c1.88.49,3.88,1,5.62,1.54C471.75,114.76,471.59,115.15,471.45,115.49Z"/>
      <path class="cls-9" d="M478.6,120.81c-1.7,1.54-7.15,1.46-10,1.41-1.82-.32-3.9-.66-5.83-1l-4.53.51a16,16,0,0,1-5-1.49c-1.74.09-2.38,1.61-5,1.23-.34-.15-.65-.34-.42-.56-5,.6-11.78-.58-17.79-.88-1.18.31-2.33.57-3.51.88-10.94-2.26-24-1.43-34.12-2.47-.85.46-2.12.07-4.72-.6,4.69-1.49,11.74.06,18.39-.52,1.08-.09,2.17-.18,3.27-.32a1.51,1.51,0,0,0-.41-.55c.67-.36,1.19-.66,1.71-1a4.28,4.28,0,0,0-1-.66c-1,.1-1.92.2-5.32-.71-2.78,1-6.81-.6-9,.68a9.65,9.65,0,0,1-1.08-1.77c.41,0,.83-.11,1.24-.14,2.36,0,4.59,0,6.94,0l1.26.1c1.44,0,2.86,0,4.3,0l1.26.1,3.67.29,1.13.09c1.29,0,2.48,0,3.79,0,.78,0,1.72,0,2.5,0,1.87.2,3.6.46,5.34.65l1.27.1c2.41-.15,3.8-1.26,8.8-.11a7.91,7.91,0,0,0,.7,1.44c1.11.15,2.33.36,3.55.57.29-.38.68-.7,1-1l3.4-.6c1.44,0,2.35-.63,3.88-.22.92.3,1.81.67,2.7,1-.71.75-1.45,1.56-2.16,2.32-.46.77,1.71.6,1.95,1.25l3,.24c2.55.15,5.47.67,9.49,1,2.6,0,4.87-.37,7.55.08.88-.22,1.88-.43,2.76-.65l1.27.1Z"/>
      <path class="cls-10" d="M384.56,108.91l-5.43-.43c-1.39.18-3.15,1.55-5.38,1-1.54-.06-1-.77-.81-1.17-1.39-.11-3.09-.42-2.74.6-.72.46-1.72,0-2.52.09-3.75-2.56-6.2,1.65-11.13-.59-.85.16-1.85.38-2.73.59-1.13.2-2.26.41-3.37.55a6.81,6.81,0,0,0-1.32-1.21c-6.86-.77-13.31.58-19.71-1-1,.79-4.06.31-6.23,1.42-1.88-.79-1.07-1.48-3.21-1.36-1.21.08-3.67-.29-3.39.6-.83.4-2.1,0-4.76.73l-1.13-.09c-1.4-1.33-5.82-1.39-7.73-1.19-.6.47-1.72,0-2.53.09-1.34-.22-2.71-.39-4.05-.61-5.74.59-12.69.33-17.88.55-1-.31-2.24-.58-3.44-.85-.1,1.79-4.51.17-5.49,1.25-1.41,0-3-.06-4.42-.06-.79.63-3,.29-4.86,1.3L259,109l-.33.79c-2.58-.38-5.17-.76-7.6-1.19a1.55,1.55,0,0,1-.42-.55c-1.35-.51-2,.48-4.69-.66-2.36-.3-2.21,1.21-6.82-.25-2.13-.23-1.47,1.62-4.12.77-.9-.36-1.79-.72-2.7-1-1.65-.13-2.67,1.06-4.64.45-1-.09-2-.16-3-.24,1.52-.52.46-1.71,2.59-1.48,1.72.25,3.59.46,5.31.71,1.59,0,1.94-1.47,4.24-1.06,1,.14,2,.33,2.92.52.73-.17,1.3-.3,2-.42l2.4.19c2.15.17,3.64-.87,7.49-1.32.24-.56.48-1.12.69-1.63.76.06,1.64.14,2.4.19a12.33,12.33,0,0,1,5.74-1.51c1,.37,2.17.75,3.31,1.13l3,.24c4-.21,8.46-.55,12.08-.44,2.45-.85.75,1,4.17.33,1.17.33,2.32.71,3.34,1.08,1.8.37,3.08-.8,4.75-.73,1.51.76,3.14,1.52,4.65,2.28,1.23-.42,2.48-.91,3.71-1.33,1.29.34,2.56.73,4,1.13.25-.91,3.08-1.1,3.31-2l.63,0c1,.32,2.19.7,3.21,1.07,1.91-.49,3.7-1.33,5.74-1.52a42.42,42.42,0,0,0,8.69.17c4.39.11,8.64.27,13,.45,4.37-.41,8.79.86,12,1.24l6.07.48,3.61,1.67a4.5,4.5,0,0,0,3.36-.54c1.25.15,2.46.36,3.58.51,1.66-.21.06-1.68,2.56-1.42.36.09.69.23,1,.31l6.29,0,4.3.34c.16.53.3,1.13.45,1.72,1.19.26,2.38.53,3.45.79,3.49-.54,10.53.14,15,.09,5-.31,10.77,1.13,15.51.41,1.78.14.66.92,2.83.74,4.38-.46,11.59.11,16.2,1.86-8.11.35-15.8-1-23.2-.15,0-.69-1.6-.53-1.29-1.26-2.59-.38-3.44.08-5.68.13-.31-.2-.77-.35-.4-.61-1.39-.11-3.11-.36-2.75.65a4.1,4.1,0,0,1-2,.13C394.23,109.85,389.47,109.36,384.56,108.91Z"/>
      <path class="cls-6" d="M425.14,116.81c-2.08,0-4.15-.09-6.2-.2a6.76,6.76,0,0,0,.82,1.17l-3.67-.29a16.82,16.82,0,0,1,1.71-1c-1.19-.27-2.38-.54-3.45-.8l.48-1.12,1.13.09c1.18.32,2.37.59,3.44.85,2,.33,3.9.65,5.83,1C425.21,116.65,425.16,116.76,425.14,116.81Z"/>
      <path class="cls-6" d="M376.6,105.5l-6.29,0c-.35-.08-.68-.22-1-.31.17-.39.31-.73.47-1.12a27,27,0,0,1,4.51-.46l2.47,1.59A2.1,2.1,0,0,0,376.6,105.5Z"/>
      <path class="cls-6" d="M336.25,119.29c-1.54.23-2.67,1.36-5.15.41.16-.68,2.16-.76,4.36-1.34C335.72,118.67,336,119,336.25,119.29Z"/>
      <path class="cls-6" d="M312.51,120.72c-.89.22-1.37,1-2.89.64a5.24,5.24,0,0,1-1.3-1.26,7.83,7.83,0,0,1-1.43-.92c1.48-.12,1.1-1.07,2.85-.88s3.59.46,5.32.71C314.17,119.58,313.27,120.15,312.51,120.72Z"/>
      <path class="cls-6" d="M316.37,102.65c-2,.19-3.83,1-5.74,1.52-1-.37-2.17-.75-3.21-1.07.22-.21.55-.36.75-.52,1.15-.25,2.32-.56,3.48-.82l4.93.39C316.44,102.49,316.4,102.6,316.37,102.65Z"/>
      <path class="cls-6" d="M305.43,112.11c2.29-.46,5.24-.92,4.82.38Z"/>
      <path class="cls-6" d="M301.23,125.11,294.12,124a19.2,19.2,0,0,1-1.72,1c-3-.7-4.66-.43-5,.18l-5.65.08a2.44,2.44,0,0,1-.3-.84L276,124l-3.67-.29c-3.5.25-6.9.56-10.42.86-1.36-.81-2.62-1.54-4-2.29-.46-.15-.81-.24-1.14-.38a2.66,2.66,0,0,0-.3-.84c.41-.66,2.29-.8.68-1.62-.11-.65-.21-1.35-.33-2,.4,0,.83-.11,1.24-.13a35.94,35.94,0,0,0,7.63,1.41c.87-1.44,4.29-.24,7.9-1.06l3,.24,7.34.59c1.45.28,3.15.88,4.42,0,3.55,1.5,7.34-1.91,8.36,1,1.57.3,3,.59,4.56,1-4,2.34-11,.87-16.71.88.8,1.51-2.76.65-4.23,1.34a14,14,0,0,0,1.2,1.49c.78-.29,1.57-.63,2.22-.93,2.67-.42,6.93.61,10.61.26,3,.35,6,.65,9,1Z"/>
      <path class="cls-6" d="M291.16,102.92c-1.67-.07-3,1.1-4.75.73-1-.37-2.17-.75-3.34-1.08,1.88-.43,3.77-.86,5.62-1.23.69.22,1.51.46,2.19.69a1.16,1.16,0,0,0,.4.61Z"/>
      <path class="cls-6" d="M263.78,102.44c-1.14-.38-2.29-.76-3.31-1.13a12.33,12.33,0,0,0-5.74,1.51,12.33,12.33,0,0,1,5.74-1.51C261.49,101.68,262.64,102.06,263.78,102.44Z"/>
      <path class="cls-6" d="M255.4,111.75a12.4,12.4,0,0,1-4.78.78c.17-.39.31-.73.47-1.12Z"/>
      <path class="cls-6" d="M243.33,127c-1.34.06-2.55.14-3.88.21-.61-.1-1.2-.27-1.68-.36-2.31.51-5.55.14-7.27.81l-8.69-.16c-3-.06-5.83-.11-8.84-.12-1.22.42-2.47.91-3.72,1.39l-4.81-.38c.87-.51,1.74-1,2.46-1.49,2.06.39,3.52-.3,6.19.2l.57-1.35c1.58-.34,3.29-.66,4.87-1,2.65-.09,4.85,0,6.64-.87,2.07.05,4.12.15,6.19.2,2.28.47,4.57.94,7,1.42.1-.22.17-.39.24-.56s.52-.31.74-.52l1.9.15c.92.3,1.86.55,2.8.8Z"/>
      <path class="cls-6" d="M243.64,102.47a17.72,17.72,0,0,0,7.55.07A17.72,17.72,0,0,1,243.64,102.47Z"/>
      <path class="cls-6" d="M188.57,117.07c-1.26.19-2.24.35-3.37.55l-1.12-2L189,116C188.87,116.34,188.74,116.68,188.57,117.07Z"/>
      <path class="cls-6" d="M186.21,109.06c-1.83.32-3.54.65-5.38,1-.06-.47,0-.93-.06-1.4l5.15-.11C186,108.69,186.15,108.88,186.21,109.06Z"/>
      <path class="cls-7" d="M363.13,106.12a4.5,4.5,0,0,1-3.36.54L356.16,105l2.86-.88,1.26.1C361.2,104.81,362.24,105.47,363.13,106.12Z"/>
      <path class="cls-7" d="M299.52,103.87c-1.23.42-2.48.91-3.71,1.33-1.51-.76-3.14-1.52-4.65-2.28l.12-.28c2.6,0,5.33.07,8.08.06A.87.87,0,0,1,299.52,103.87Z"/>
      <path class="cls-9" d="M464.12,115.2c-1.38-.46-2.24.35-3.37.54q-3-.22-6.07-.48c.22-.5.45-1.06.69-1.62-.07-.47,0-.93-.07-1.4l3.26-.26c2.25.23,4.35.52,6.58.81C464.81,113.57,464.48,114.36,464.12,115.2Z"/>
      <path class="cls-9" d="M445.9,110.69l-.51,0c-1.45-.29-5.14.11-4-1.13l3.39-.6a9.54,9.54,0,0,1,1.53.7Z"/>
      <path class="cls-9" d="M387.15,113.29c-.54-.27-1.1-.49-1.66-.71.14-1.27,3.29-.67,5.78-.06C389.86,112.75,388.46,113,387.15,113.29Z"/>
      <path class="cls-9" d="M381.26,113.93a12.66,12.66,0,0,0-4.54.22c-1.34-.22-2.81-.46-4.18-.62l.36-.85c1.94-.25,4.49-.1,6.64-.86,1.22.21,2.43.42,3.55.57Z"/>
      <path class="cls-9" d="M369.27,105.21c-2.5-.26-.9,1.21-2.56,1.42-1.12-.15-2.33-.36-3.58-.51-.89-.65-1.93-1.31-2.85-1.91a21.3,21.3,0,0,0,3.39-.6l4.81.38,1.26.1C369.58,104.48,369.44,104.82,369.27,105.21Z"/>
      <path class="cls-9" d="M299.52,103.87a.87.87,0,0,0-.16-1.17l5.14-.12c.74.12,1.45.29,2.29.47-.23.85-3.06,1-3.31,2C302.08,104.6,300.81,104.21,299.52,103.87Z"/>
      <path class="cls-9" d="M219.31,117c-1.15.26-2.31.51-3.48.83A4,4,0,0,1,213,117l2.85-.87a11.41,11.41,0,0,0-.46-2l4.3.34c1.46.58.87,1.35,2.23,2.15C221.12,116.75,220.17,116.85,219.31,117Z"/>
      <path class="cls-9" d="M213.09,127.07c-2.67-.5-4.13.19-6.19-.2-.72.46-1.59,1-2.46,1.49l-.63-.06c-3.13-.94-3.82-.24-4.81-.37.61-.83-1.77-.44-2.05-1a8.19,8.19,0,0,1-.69-1.44l.75-.23c1.67.07,3.23.08,4.9.15,2,0,3.85.48,5.41-.73l.51,0c1.8.38,3.5.68,5.32,1l.51,0Z"/>
      <path class="cls-9" d="M213.68,106.54c-.4,0-.83.1-1.38.18-2.91-.23-5.85-.7-8.41.72l-3-.24.8-1.9c.88-.23,1.88-.44,2.74-.6,3.57-.12,7-.49,10.84-.3A22.74,22.74,0,0,0,213.68,106.54Z"/>
      <path class="cls-10" d="M207.83,124.68l-.51,0c-1.17-.32-2.31-.7-3.33-1.07,1.78-.21,3.47-.48,5.25-.69a8.84,8.84,0,0,0,1.06.61Z"/>
      <path class="cls-10" d="M211.19,115.5l-5.56-.44c2.65-.72,5.32-1.15,5.78-.07Z"/>
      <path class="cls-10" d="M193.5,123c-1.32.65-3,.23-4.3,0l-2.74.3a6.22,6.22,0,0,1-1-.37l.57-1.34c1,.31,2.24.58,3.43.85a14,14,0,0,0,1.37-.48Z"/>
      <path class="cls-10" d="M189.05,127.66a24.86,24.86,0,0,1,.63,2.83c-4.09.72-3.93-.6-6.64-1.91l2.85-.88c-1.14-.38-2.16-.75-3.33-1.07.05-.11.09-.23.12-.29,3.64.35,4.44-.92,8.36,1C190.46,127.42,189.75,127.54,189.05,127.66Z"/>
      <path class="cls-8" d="M478.85,129.18c-1.44.93-3.7.4-5,.12-1.31,0-2.47,0-3.79,0,.61-.82,1.93-1.47,4.12-.77C475.79,128.7,477.25,128.93,478.85,129.18Z"/>
      <path class="cls-8" d="M476,113.65c-1.29.25-2.69.48-4.12.77-1.74-.54-3.74-1-5.62-1.54a10.76,10.76,0,0,1,2.37-1C471.73,112,474.27,112.53,476,113.65Z"/>
      <path class="cls-6" d="M347.48,119.6a7.93,7.93,0,0,0-1.38.19A7.93,7.93,0,0,1,347.48,119.6Z"/>
      <path class="cls-6" d="M331.56,112.78a3.39,3.39,0,0,0-.88.51l-.63-.05-4.51.16c-3.46-.15-6.9-.37-10.37-.52l-3.66-.29c1.15-.26,2.33-.57,3.49-.83l.11-.28c1.06,0,2.1,0,3.16,0,1.34.22,2.71.39,4.18.62,1.62.48,2.64-.37,3.37-.55C327.62,111.89,329.65,112.34,331.56,112.78Z"/>
      <path class="cls-6" d="M332.06,112.82l-.5,0Z"/>
      <path class="cls-7" d="M182.68,126.34c0,.06-.07.18-.12.29C182.61,126.52,182.65,126.4,182.68,126.34Z"/>
      <path class="cls-9" d="M387.72,117.8l-.63,0Z"/>
      <path class="cls-10" d="M224.06,107.35c-2.22.29-1,1.09-5,1.29-3-.87-3.88-.07-8.47-.67.59-.47,1.14-.84,1.71-1.25.55-.08,1-.16,1.38-.18C216.37,107.91,218.41,105.87,224.06,107.35Z"/>
      <path class="cls-10" d="M224.68,107.12a3,3,0,0,0-.62.23A3,3,0,0,1,224.68,107.12Z"/>
      <path class="cls-10" d="M376.6,105.5a2.1,2.1,0,0,1,.12-.28A2.1,2.1,0,0,0,376.6,105.5Z"/>
      <path class="cls-10" d="M204,123.57c-.63.24-1.13.49-1.6.68-1.7,0-3.26,0-4.92-.1-.77-.35-1.44-.63-2.08-1a6,6,0,0,1,.75-.52C201.13,122.3,202.28,123,204,123.57Z"/>
      <path class="cls-6" d="M346.1,119.79c-1.11-.15-.65.93-3.88.21-1.11-.15-2.33-.36-3.57-.51.72-.47,1.26-.83,1.83-1.25l1.27.1.92.59c.38,0,.76.06,1.27.1C344.62,119.26,345.44,119.5,346.1,119.79Z"/>
    </g>
  </g>
  <g>
    <path d="M269.82,179a12,12,0,0,1,1.42.08l-.18.56a10,10,0,0,0-1.36-.1,3.36,3.36,0,0,0-2.2.71,2.17,2.17,0,0,0-.85,1.77v3.56h-1v-6.46h.81l.1,1.17h.06a3.7,3.7,0,0,1,1.38-1A4.71,4.71,0,0,1,269.82,179Z"/>
    <path d="M277.6,185.74a6.27,6.27,0,0,1-3.56-.87,2.76,2.76,0,0,1-1.27-2.43A2.94,2.94,0,0,1,274,180a5.38,5.38,0,0,1,3.32-.93,4.78,4.78,0,0,1,2.92.79,2.55,2.55,0,0,1,1.07,2.17v.47h-7.54a2.41,2.41,0,0,0,1,2,4.93,4.93,0,0,0,2.83.7,14.44,14.44,0,0,0,1.58-.08,13.92,13.92,0,0,0,1.72-.33v.53a10.25,10.25,0,0,1-1.64.32A14,14,0,0,1,277.6,185.74Zm-.28-6.18a4.25,4.25,0,0,0-2.42.61,2.41,2.41,0,0,0-1.07,1.78h6.47a2.12,2.12,0,0,0-.79-1.76A3.42,3.42,0,0,0,277.32,179.56Z"/>
    <path d="M291.51,185.62v-4.19a1.59,1.59,0,0,0-.66-1.42,3.89,3.89,0,0,0-2.07-.44,5,5,0,0,0-2.75.59,2.12,2.12,0,0,0-.87,1.9v3.56h-1v-6.46H285l.19.89h.06c.68-.68,1.89-1,3.63-1,2.38,0,3.56.78,3.56,2.36v4.22Z"/>
    <path d="M299.68,179a6.74,6.74,0,0,1,2,.25,3.63,3.63,0,0,1,1.48.88h.06q-.06-.75-.06-1.47v-2.33h.95v9.25h-.63l-.24-1h-.08a4.89,4.89,0,0,1-3.43,1.1,5.61,5.61,0,0,1-3.31-.83,2.8,2.8,0,0,1-1.15-2.43,3.05,3.05,0,0,1,1.14-2.56A5.3,5.3,0,0,1,299.68,179Zm0,.53a3.91,3.91,0,0,0-2.58.74,2.72,2.72,0,0,0-.86,2.16c0,1.83,1.16,2.75,3.46,2.75a4.23,4.23,0,0,0,2.6-.64,2.45,2.45,0,0,0,.83-2.1v-.1a2.61,2.61,0,0,0-.81-2.15A4.19,4.19,0,0,0,299.68,179.57Z"/>
    <path d="M310.36,185.22a10.41,10.41,0,0,0,1.58-.1v.48a8.35,8.35,0,0,1-1.6.14,3.56,3.56,0,0,1-2-.46,1.6,1.6,0,0,1-.66-1.44v-4.17h-1.56v-.34l1.56-.27.48-1.46h.49v1.56h3.07v.51h-3.07v4.09a1.36,1.36,0,0,0,.42,1.1A2,2,0,0,0,310.36,185.22Z"/>
    <path d="M322.87,182.38a2.85,2.85,0,0,1-1.24,2.47,5.82,5.82,0,0,1-3.43.89,6.72,6.72,0,0,1-2.43-.41,3.42,3.42,0,0,1-1.61-1.18,2.94,2.94,0,0,1-.56-1.77,2.87,2.87,0,0,1,1.24-2.46,5.81,5.81,0,0,1,3.42-.88,5.7,5.7,0,0,1,3.38.89A2.87,2.87,0,0,1,322.87,182.38Zm-8.27,0a2.51,2.51,0,0,0,.95,2.08,5.18,5.18,0,0,0,5.37,0,2.51,2.51,0,0,0,.95-2.08,2.46,2.46,0,0,0-1-2.07,4.35,4.35,0,0,0-2.69-.74,4.27,4.27,0,0,0-2.68.74A2.49,2.49,0,0,0,314.6,182.38Z"/>
    <path d="M329.9,179a11.92,11.92,0,0,1,1.42.08l-.18.56a10,10,0,0,0-1.36-.1,3.33,3.33,0,0,0-2.19.71,2.15,2.15,0,0,0-.86,1.77v3.56h-1v-6.46h.81l.1,1.17h.07a3.67,3.67,0,0,1,1.37-1A4.71,4.71,0,0,1,329.9,179Z"/>
    <path d="M337.35,179.67h-2.47v6h-.95v-6H332v-.34l1.95-.22v-.5a2.1,2.1,0,0,1,.7-1.75,3.83,3.83,0,0,1,2.32-.55,9.31,9.31,0,0,1,1.74.16l-.22.51a8.11,8.11,0,0,0-1.54-.15,2.42,2.42,0,0,0-1.58.41,1.67,1.67,0,0,0-.47,1.32v.6h2.47Zm5.92,0H340.8v6h-1v-6H337.9v-.34l1.94-.22v-.5a2.1,2.1,0,0,1,.71-1.75,3.81,3.81,0,0,1,2.32-.55,9.13,9.13,0,0,1,1.73.16l-.22.51a7.93,7.93,0,0,0-1.53-.15,2.4,2.4,0,0,0-1.58.41,1.63,1.63,0,0,0-.47,1.32v.6h2.47Z"/>
    <path d="M349.13,179a6.74,6.74,0,0,1,2,.25,3.63,3.63,0,0,1,1.48.88h.06q-.06-.75-.06-1.47v-2.33h.95v9.25h-.63l-.24-1h-.08a4.89,4.89,0,0,1-3.43,1.1,5.61,5.61,0,0,1-3.31-.83,2.8,2.8,0,0,1-1.15-2.43,3.05,3.05,0,0,1,1.14-2.56A5.3,5.3,0,0,1,349.13,179Zm0,.53a3.86,3.86,0,0,0-2.57.74,2.7,2.7,0,0,0-.87,2.16c0,1.83,1.16,2.75,3.46,2.75a4.27,4.27,0,0,0,2.61-.64,2.48,2.48,0,0,0,.82-2.1v-.1a2.61,2.61,0,0,0-.81-2.15A4.19,4.19,0,0,0,349.13,179.57Z"/>
    <path d="M361.28,185.74a6.27,6.27,0,0,1-3.56-.87,2.77,2.77,0,0,1-1.28-2.43,2.94,2.94,0,0,1,1.23-2.47A5.42,5.42,0,0,1,361,179a4.8,4.8,0,0,1,2.92.79A2.58,2.58,0,0,1,365,182v.47h-7.55a2.41,2.41,0,0,0,1,2,4.91,4.91,0,0,0,2.83.7,14.25,14.25,0,0,0,1.57-.08,13.58,13.58,0,0,0,1.72-.33v.53a10.14,10.14,0,0,1-1.63.32A14.09,14.09,0,0,1,361.28,185.74Zm-.28-6.18a4.29,4.29,0,0,0-2.43.61A2.44,2.44,0,0,0,357.5,182H364a2.15,2.15,0,0,0-.79-1.76A3.44,3.44,0,0,0,361,179.56Z"/>
    <path d="M374.38,183.94c0,.58-.36,1-1.07,1.33a7.71,7.71,0,0,1-3,.47,11,11,0,0,1-3.33-.4v-.63a11.36,11.36,0,0,0,3.33.48,6.81,6.81,0,0,0,2.36-.31c.53-.22.8-.5.8-.85s-.21-.6-.64-.82a9.7,9.7,0,0,0-2.1-.66,15.65,15.65,0,0,1-2.21-.6,2.82,2.82,0,0,1-1-.57,1,1,0,0,1-.32-.77c0-.49.33-.87,1-1.15A7.29,7.29,0,0,1,371,179a12.83,12.83,0,0,1,3.21.39l-.35.53a11.72,11.72,0,0,0-2.86-.39,6.53,6.53,0,0,0-2,.26c-.5.18-.75.42-.75.73a.92.92,0,0,0,.58.81A11.14,11.14,0,0,0,371,182a14.74,14.74,0,0,1,2.06.57,2.64,2.64,0,0,1,1,.58A1,1,0,0,1,374.38,183.94Z"/>
    <path d="M376.94,177.37c0-.38.2-.57.61-.57a.7.7,0,0,1,.46.14.52.52,0,0,1,.17.43.51.51,0,0,1-.17.42.65.65,0,0,1-.46.15C377.14,177.94,376.94,177.75,376.94,177.37Zm1.09,8.25h-1v-6.46h1Z"/>
    <path d="M389.71,179.16v.41l-2.17.08a1.89,1.89,0,0,1,.87,1.47,1.73,1.73,0,0,1-1,1.51,5.36,5.36,0,0,1-2.7.58,7.66,7.66,0,0,1-1,0,2.7,2.7,0,0,0-.87.44.69.69,0,0,0-.3.53c0,.2.13.35.38.45a4.19,4.19,0,0,0,1.28.14H386a6.19,6.19,0,0,1,2.61.43,1.35,1.35,0,0,1,.91,1.25c0,.68-.45,1.21-1.35,1.58a10.35,10.35,0,0,1-3.83.56,8,8,0,0,1-3.06-.47c-.72-.32-1.08-.75-1.08-1.31a1.31,1.31,0,0,1,.67-1.11,4.47,4.47,0,0,1,1.81-.6,2,2,0,0,1-.75-.35.67.67,0,0,1-.29-.53c0-.43.45-.81,1.34-1.14a3,3,0,0,1-1.42-.73,1.52,1.52,0,0,1-.52-1.13,1.77,1.77,0,0,1,1-1.56,5.33,5.33,0,0,1,2.7-.58,8.26,8.26,0,0,1,1.6.12Zm-8.48,7.56c0,.88,1.07,1.33,3.21,1.33,2.75,0,4.12-.54,4.12-1.63a.89.89,0,0,0-.64-.84,6.16,6.16,0,0,0-2.09-.26h-1.72C382.19,185.32,381.23,185.78,381.23,186.72Zm.8-5.54a1.27,1.27,0,0,0,.74,1.16,5,5,0,0,0,4,0,1.3,1.3,0,0,0,.69-1.19,1.34,1.34,0,0,0-.71-1.24,4.13,4.13,0,0,0-2-.41,3.78,3.78,0,0,0-2,.44A1.39,1.39,0,0,0,382,181.18Z"/>
    <path d="M399.16,185.62v-4.19a1.59,1.59,0,0,0-.66-1.42,3.82,3.82,0,0,0-2.06-.44,5,5,0,0,0-2.75.59,2.1,2.1,0,0,0-.88,1.9v3.56h-.95v-6.46h.81l.18.89h.06c.68-.68,1.89-1,3.63-1,2.38,0,3.57.78,3.57,2.36v4.22Z"/>
    <path d="M410,183.94c0,.58-.36,1-1.07,1.33a7.71,7.71,0,0,1-3,.47,11,11,0,0,1-3.33-.4v-.63a11.36,11.36,0,0,0,3.33.48,6.81,6.81,0,0,0,2.36-.31c.53-.22.8-.5.8-.85s-.21-.6-.64-.82a9.7,9.7,0,0,0-2.1-.66,15.65,15.65,0,0,1-2.21-.6,2.93,2.93,0,0,1-1-.57,1.06,1.06,0,0,1-.32-.77c0-.49.33-.87,1-1.15a7.2,7.2,0,0,1,2.76-.42,13,13,0,0,1,3.22.39l-.36.53a11.72,11.72,0,0,0-2.86-.39,6.53,6.53,0,0,0-2,.26c-.5.18-.75.42-.75.73a.94.94,0,0,0,.58.81,11.14,11.14,0,0,0,2.28.67,15,15,0,0,1,2.07.57,2.68,2.68,0,0,1,1,.58A1,1,0,0,1,410,183.94Z"/>
    <path d="M412.5,185.16c0-.39.26-.58.77-.58s.79.19.79.58-.26.58-.79.58S412.5,185.55,412.5,185.16Z"/>
    <path d="M421.23,179a6.72,6.72,0,0,1,2,.25,3.73,3.73,0,0,1,1.49.88h.05c0-.5-.05-1-.05-1.47v-2.33h.94v9.25H425l-.24-1h-.07a4.94,4.94,0,0,1-3.44,1.1,5.61,5.61,0,0,1-3.31-.83,2.8,2.8,0,0,1-1.15-2.43,3.05,3.05,0,0,1,1.14-2.56A5.31,5.31,0,0,1,421.23,179Zm0,.53a3.87,3.87,0,0,0-2.58.74,2.7,2.7,0,0,0-.87,2.16c0,1.83,1.16,2.75,3.46,2.75a4.27,4.27,0,0,0,2.61-.64,2.48,2.48,0,0,0,.83-2.1v-.1a2.61,2.61,0,0,0-.82-2.15A4.18,4.18,0,0,0,421.23,179.57Z"/>
    <path d="M430.07,182.79l5.35-3.63h1.16l-4.13,2.76,4.48,3.7h-1.14l-4-3.26-1.72,1v2.3h-.95v-9.25h.95V181l-.07,1.78Z"/>
  </g>
</svg>
